<?xml version="1.0" encoding="utf-8" standalone="no"?>
<!DOCTYPE svg PUBLIC "-//W3C//DTD SVG 1.1//EN"
  "http://www.w3.org/Graphics/SVG/1.1/DTD/svg11.dtd">
<svg xmlns:xlink="http://www.w3.org/1999/xlink" width="760.212pt" height="646.368225pt" viewBox="0 0 760.212 646.368225" xmlns="http://www.w3.org/2000/svg" version="1.1">
 <metadata>
  <rdf:RDF xmlns:dc="http://purl.org/dc/elements/1.1/" xmlns:cc="http://creativecommons.org/ns#" xmlns:rdf="http://www.w3.org/1999/02/22-rdf-syntax-ns#">
   <cc:Work>
    <dc:type rdf:resource="http://purl.org/dc/dcmitype/StillImage"/>
    <dc:date>2026-09-20T05:03:29.754281</dc:date>
    <dc:format>image/svg+xml</dc:format>
    <dc:creator>
     <cc:Agent>
      <dc:title>Matplotlib v3.10.8, https://matplotlib.org/</dc:title>
     </cc:Agent>
    </dc:creator>
   </cc:Work>
  </rdf:RDF>
 </metadata>
 <defs>
  <style type="text/css">*{stroke-linejoin: round; stroke-linecap: butt}</style>
 </defs>
 <g id="figure_1">
  <g id="patch_1">
   <path d="M -0 646.368225 
L 760.212 646.368225 
L 760.212 -0 
L -0 -0 
z
" style="fill: #ffffff"/>
  </g>
  <g id="axes_1">
   <g id="patch_2">
    <path d="M 112.032 202.6296 
L 388.762435 202.6296 
L 388.762435 42.4296 
L 112.032 42.4296 
z
" style="fill: #ffffff"/>
   </g>
   <g id="matplotlib.axis_1">
    <g id="xtick_1">
     <g id="line2d_1">
      <defs>
       <path id="m98487a3f67" d="M 0 0 
L 0 3 
" style="stroke: #434d55; stroke-width: 0.8"/>
      </defs>
      <g>
       <use xlink:href="#m98487a3f67" x="112.032" y="202.6296" style="fill: #434d55; stroke: #434d55; stroke-width: 0.8"/>
      </g>
     </g>
    </g>
    <g id="xtick_2">
     <g id="line2d_2">
      <g>
       <use xlink:href="#m98487a3f67" x="181.214609" y="202.6296" style="fill: #434d55; stroke: #434d55; stroke-width: 0.8"/>
      </g>
     </g>
    </g>
    <g id="xtick_3">
     <g id="line2d_3">
      <g>
       <use xlink:href="#m98487a3f67" x="250.397217" y="202.6296" style="fill: #434d55; stroke: #434d55; stroke-width: 0.8"/>
      </g>
     </g>
    </g>
    <g id="xtick_4">
     <g id="line2d_4">
      <g>
       <use xlink:href="#m98487a3f67" x="319.579826" y="202.6296" style="fill: #434d55; stroke: #434d55; stroke-width: 0.8"/>
      </g>
     </g>
    </g>
    <g id="xtick_5">
     <g id="line2d_5">
      <g>
       <use xlink:href="#m98487a3f67" x="388.762435" y="202.6296" style="fill: #434d55; stroke: #434d55; stroke-width: 0.8"/>
      </g>
     </g>
    </g>
   </g>
   <g id="matplotlib.axis_2">
    <g id="ytick_1">
     <g id="line2d_6">
      <path d="M 112.032 175.588265 
L 388.762435 175.588265 
" clip-path="url(#p7b35c48073)" style="fill: none; stroke: #dde3e6; stroke-width: 0.6; stroke-linecap: square"/>
     </g>
     <g id="line2d_7">
      <defs>
       <path id="m7ba3392fea" d="M 0 0 
L -3 0 
" style="stroke: #434d55; stroke-width: 0.8"/>
      </defs>
      <g>
       <use xlink:href="#m7ba3392fea" x="112.032" y="175.588265" style="fill: #434d55; stroke: #434d55; stroke-width: 0.8"/>
      </g>
     </g>
     <g id="text_1">
      <text style="font-size: 9px; font-family: 'Palatino Linotype', 'P052', 'DejaVu Serif', serif; text-anchor: end; fill: #434d55" x="105.532" y="178.854984" transform="rotate(-0 105.532 178.854984)">−0.15</text>
     </g>
    </g>
    <g id="ytick_2">
     <g id="line2d_8">
      <path d="M 112.032 127.803476 
L 388.762435 127.803476 
" clip-path="url(#p7b35c48073)" style="fill: none; stroke: #dde3e6; stroke-width: 0.6; stroke-linecap: square"/>
     </g>
     <g id="line2d_9">
      <g>
       <use xlink:href="#m7ba3392fea" x="112.032" y="127.803476" style="fill: #434d55; stroke: #434d55; stroke-width: 0.8"/>
      </g>
     </g>
     <g id="text_2">
      <text style="font-size: 9px; font-family: 'Palatino Linotype', 'P052', 'DejaVu Serif', serif; text-anchor: end; fill: #434d55" x="105.532" y="131.070195" transform="rotate(-0 105.532 131.070195)">0</text>
     </g>
    </g>
    <g id="ytick_3">
     <g id="line2d_10">
      <path d="M 112.032 80.018688 
L 388.762435 80.018688 
" clip-path="url(#p7b35c48073)" style="fill: none; stroke: #dde3e6; stroke-width: 0.6; stroke-linecap: square"/>
     </g>
     <g id="line2d_11">
      <g>
       <use xlink:href="#m7ba3392fea" x="112.032" y="80.018688" style="fill: #434d55; stroke: #434d55; stroke-width: 0.8"/>
      </g>
     </g>
     <g id="text_3">
      <text style="font-size: 9px; font-family: 'Palatino Linotype', 'P052', 'DejaVu Serif', serif; text-anchor: end; fill: #434d55" x="105.532" y="83.285407" transform="rotate(-0 105.532 83.285407)">0.15</text>
     </g>
    </g>
    <g id="text_4">
     <text style="font-size: 10px; font-family: 'Palatino Linotype', 'P052', 'DejaVu Serif', serif; fill: #202a31" transform="translate(61.97825 158.0421) rotate(-90)">Military conflict</text>
     <text style="font-size: 10px; font-family: 'Palatino Linotype', 'P052', 'DejaVu Serif', serif; fill: #202a31" transform="translate(73.519188 185.53585) rotate(-90)">World industrial production</text>
    </g>
   </g>
   <g id="FillBetweenPolyCollection_1">
    <defs>
     <path id="mbfa4b69024" d="M 112.032 -525.921614 
L 112.032 -500.901705 
L 117.797217 -503.060395 
L 123.562435 -496.083291 
L 129.327652 -481.626008 
L 135.09287 -481.21264 
L 140.858087 -483.992422 
L 146.623304 -484.623319 
L 152.388522 -484.066056 
L 158.153739 -486.298512 
L 163.918957 -488.274525 
L 169.684174 -485.549982 
L 175.449391 -486.073931 
L 181.214609 -492.205895 
L 186.979826 -489.400242 
L 192.745043 -490.828257 
L 198.510261 -496.092165 
L 204.275478 -484.144441 
L 210.040696 -488.913329 
L 215.805913 -493.61285 
L 221.57113 -488.676685 
L 227.336348 -490.194499 
L 233.101565 -491.275246 
L 238.866783 -490.836019 
L 244.632 -483.062001 
L 250.397217 -480.30608 
L 256.162435 -478.376063 
L 261.927652 -478.65906 
L 267.69287 -470.361567 
L 273.458087 -474.246839 
L 279.223304 -471.301008 
L 284.988522 -464.352785 
L 290.753739 -457.23043 
L 296.518957 -461.479662 
L 302.284174 -454.802175 
L 308.049391 -452.893474 
L 313.814609 -455.132236 
L 319.579826 -451.020443 
L 325.345043 -453.391983 
L 331.110261 -458.036657 
L 336.875478 -458.431834 
L 342.640696 -460.143799 
L 348.405913 -461.295608 
L 354.17113 -462.558642 
L 359.936348 -466.178241 
L 365.701565 -466.913481 
L 371.466783 -471.952026 
L 377.232 -473.280044 
L 382.997217 -479.959337 
L 388.762435 -477.421212 
L 388.762435 -596.656807 
L 388.762435 -596.656807 
L 382.997217 -595.834066 
L 377.232 -579.573676 
L 371.466783 -581.330687 
L 365.701565 -574.162668 
L 359.936348 -574.610342 
L 354.17113 -570.686921 
L 348.405913 -567.597324 
L 342.640696 -563.830713 
L 336.875478 -558.802842 
L 331.110261 -558.665414 
L 325.345043 -555.487853 
L 319.579826 -557.897987 
L 313.814609 -557.720315 
L 308.049391 -554.292084 
L 302.284174 -556.15867 
L 296.518957 -554.653474 
L 290.753739 -547.755175 
L 284.988522 -550.324014 
L 279.223304 -555.281328 
L 273.458087 -555.741108 
L 267.69287 -545.267102 
L 261.927652 -549.4406 
L 256.162435 -548.083779 
L 250.397217 -548.72807 
L 244.632 -551.107784 
L 238.866783 -558.979033 
L 233.101565 -556.892466 
L 227.336348 -552.509434 
L 221.57113 -548.869077 
L 215.805913 -557.940825 
L 210.040696 -556.195111 
L 204.275478 -546.957223 
L 198.510261 -554.366726 
L 192.745043 -545.051253 
L 186.979826 -541.962218 
L 181.214609 -543.203071 
L 175.449391 -532.64069 
L 169.684174 -531.803464 
L 163.918957 -535.000636 
L 158.153739 -533.120628 
L 152.388522 -531.432449 
L 146.623304 -531.042995 
L 140.858087 -529.790039 
L 135.09287 -531.764515 
L 129.327652 -528.045615 
L 123.562435 -530.277405 
L 117.797217 -530.44876 
L 112.032 -525.921614 
z
"/>
    </defs>
    <g clip-path="url(#p7b35c48073)">
     <use xlink:href="#mbfa4b69024" x="0" y="646.368225" style="fill: #183a56; fill-opacity: 0.12"/>
    </g>
   </g>
   <g id="FillBetweenPolyCollection_2">
    <defs>
     <path id="mcf20459275" d="M 112.032 -523.910344 
L 112.032 -502.912975 
L 117.797217 -505.262058 
L 123.562435 -498.832045 
L 129.327652 -485.35753 
L 135.09287 -485.276342 
L 140.858087 -487.673945 
L 146.623304 -488.354847 
L 152.388522 -487.873688 
L 158.153739 -490.062391 
L 163.918957 -492.030686 
L 169.684174 -489.26815 
L 175.449391 -489.817282 
L 181.214609 -496.305393 
L 186.979826 -493.62553 
L 192.745043 -495.187069 
L 198.510261 -500.776669 
L 204.275478 -489.193757 
L 210.040696 -494.321895 
L 215.805913 -498.783968 
L 221.57113 -493.515357 
L 227.336348 -495.203796 
L 233.101565 -496.550002 
L 238.866783 -496.313816 
L 244.632 -488.531982 
L 250.397217 -485.806303 
L 256.162435 -483.979642 
L 261.927652 -484.34896 
L 267.69287 -476.382982 
L 273.458087 -480.7979 
L 279.223304 -478.051915 
L 284.988522 -471.263734 
L 290.753739 -464.507422 
L 296.518957 -468.969604 
L 302.284174 -462.949896 
L 308.049391 -461.044581 
L 313.814609 -463.378961 
L 319.579826 -459.611984 
L 325.345043 -461.599141 
L 331.110261 -466.125878 
L 336.875478 -466.500335 
L 342.640696 -468.478855 
L 348.405913 -469.84086 
L 354.17113 -471.250725 
L 359.936348 -474.894748 
L 365.701565 -475.534897 
L 371.466783 -480.744623 
L 377.232 -481.824646 
L 382.997217 -489.274132 
L 388.762435 -487.006177 
L 388.762435 -587.071842 
L 388.762435 -587.071842 
L 382.997217 -586.51927 
L 377.232 -571.029074 
L 371.466783 -572.53809 
L 365.701565 -565.541252 
L 359.936348 -565.893835 
L 354.17113 -561.994838 
L 348.405913 -559.052072 
L 342.640696 -555.495656 
L 336.875478 -550.73434 
L 331.110261 -550.576193 
L 325.345043 -547.280696 
L 319.579826 -549.306447 
L 313.814609 -549.47359 
L 308.049391 -546.140977 
L 302.284174 -548.010949 
L 296.518957 -547.163532 
L 290.753739 -540.478183 
L 284.988522 -543.413064 
L 279.223304 -548.530421 
L 273.458087 -549.190047 
L 267.69287 -539.245688 
L 261.927652 -543.7507 
L 256.162435 -542.4802 
L 250.397217 -543.227847 
L 244.632 -545.637803 
L 238.866783 -553.501236 
L 233.101565 -551.61771 
L 227.336348 -547.500138 
L 221.57113 -544.030405 
L 215.805913 -552.769707 
L 210.040696 -550.786546 
L 204.275478 -541.907906 
L 198.510261 -549.682222 
L 192.745043 -540.692442 
L 186.979826 -537.73693 
L 181.214609 -539.103573 
L 175.449391 -528.897339 
L 169.684174 -528.085296 
L 163.918957 -531.244475 
L 158.153739 -529.356749 
L 152.388522 -527.624818 
L 146.623304 -527.311467 
L 140.858087 -526.108516 
L 135.09287 -527.700813 
L 129.327652 -524.314093 
L 123.562435 -527.528651 
L 117.797217 -528.247098 
L 112.032 -523.910344 
z
"/>
    </defs>
    <g clip-path="url(#p7b35c48073)">
     <use xlink:href="#mcf20459275" x="0" y="646.368225" style="fill: #183a56; fill-opacity: 0.2"/>
    </g>
   </g>
   <g id="line2d_12">
    <path d="M 112.032 127.803476 
L 388.762435 127.803476 
" clip-path="url(#p7b35c48073)" style="fill: none; stroke: #7a858c; stroke-width: 0.8; stroke-linecap: square"/>
   </g>
   <g id="patch_3">
    <path d="M 112.032 202.6296 
L 112.032 42.4296 
" style="fill: none; stroke: #92999d; stroke-width: 0.65; stroke-linejoin: miter; stroke-linecap: square"/>
   </g>
   <g id="patch_4">
    <path d="M 112.032 202.6296 
L 388.762435 202.6296 
" style="fill: none; stroke: #92999d; stroke-width: 0.65; stroke-linejoin: miter; stroke-linecap: square"/>
   </g>
   <g id="text_5">
    <text style="font-size: 9px; font-family: 'Palatino Linotype', 'P052', 'DejaVu Serif', serif; text-anchor: start; fill: #4d5962" x="118.950261" y="58.575037" transform="rotate(-0 118.950261 58.575037)">(a)</text>
   </g>
   <g id="line2d_13">
    <path d="M 112.032 132.956566 
L 117.797217 129.613647 
L 123.562435 133.187877 
L 129.327652 141.532414 
L 135.09287 139.879647 
L 140.858087 139.476995 
L 146.623304 138.535068 
L 152.388522 138.618972 
L 158.153739 136.658655 
L 163.918957 134.730644 
L 169.684174 137.691502 
L 175.449391 137.010914 
L 181.214609 128.663742 
L 186.979826 130.686995 
L 192.745043 128.42847 
L 198.510261 121.13878 
L 204.275478 130.817393 
L 210.040696 123.814005 
L 215.805913 120.591388 
L 221.57113 127.595344 
L 227.336348 125.016258 
L 233.101565 122.284369 
L 238.866783 121.460699 
L 244.632 129.283332 
L 250.397217 131.85115 
L 256.162435 133.138304 
L 261.927652 132.318395 
L 267.69287 138.55389 
L 273.458087 131.374252 
L 279.223304 133.077057 
L 284.988522 139.029826 
L 290.753739 143.875422 
L 296.518957 138.301657 
L 302.284174 140.887803 
L 308.049391 142.775446 
L 313.814609 139.941949 
L 319.579826 141.90901 
L 325.345043 141.928307 
L 331.110261 138.017189 
L 336.875478 137.750887 
L 342.640696 134.380969 
L 348.405913 131.921759 
L 354.17113 129.745443 
L 359.936348 125.973933 
L 365.701565 125.83015 
L 371.466783 119.726868 
L 377.232 119.941365 
L 382.997217 108.471524 
L 388.762435 109.329216 
" clip-path="url(#p7b35c48073)" style="fill: none; stroke: #183a56; stroke-width: 1.9; stroke-linecap: square"/>
   </g>
  </g>
  <g id="axes_2">
   <g id="patch_5">
    <path d="M 471.781565 202.6296 
L 748.512 202.6296 
L 748.512 42.4296 
L 471.781565 42.4296 
z
" style="fill: #ffffff"/>
   </g>
   <g id="matplotlib.axis_3">
    <g id="xtick_6">
     <g id="line2d_14">
      <g>
       <use xlink:href="#m98487a3f67" x="471.781565" y="202.6296" style="fill: #434d55; stroke: #434d55; stroke-width: 0.8"/>
      </g>
     </g>
    </g>
    <g id="xtick_7">
     <g id="line2d_15">
      <g>
       <use xlink:href="#m98487a3f67" x="540.964174" y="202.6296" style="fill: #434d55; stroke: #434d55; stroke-width: 0.8"/>
      </g>
     </g>
    </g>
    <g id="xtick_8">
     <g id="line2d_16">
      <g>
       <use xlink:href="#m98487a3f67" x="610.146783" y="202.6296" style="fill: #434d55; stroke: #434d55; stroke-width: 0.8"/>
      </g>
     </g>
    </g>
    <g id="xtick_9">
     <g id="line2d_17">
      <g>
       <use xlink:href="#m98487a3f67" x="679.329391" y="202.6296" style="fill: #434d55; stroke: #434d55; stroke-width: 0.8"/>
      </g>
     </g>
    </g>
    <g id="xtick_10">
     <g id="line2d_18">
      <g>
       <use xlink:href="#m98487a3f67" x="748.512" y="202.6296" style="fill: #434d55; stroke: #434d55; stroke-width: 0.8"/>
      </g>
     </g>
    </g>
   </g>
   <g id="matplotlib.axis_4">
    <g id="ytick_4">
     <g id="line2d_19">
      <path d="M 471.781565 161.930472 
L 748.512 161.930472 
" clip-path="url(#pa517438e03)" style="fill: none; stroke: #dde3e6; stroke-width: 0.6; stroke-linecap: square"/>
     </g>
     <g id="line2d_20">
      <g>
       <use xlink:href="#m7ba3392fea" x="471.781565" y="161.930472" style="fill: #434d55; stroke: #434d55; stroke-width: 0.8"/>
      </g>
     </g>
     <g id="text_6">
      <text style="font-size: 9px; font-family: 'Palatino Linotype', 'P052', 'DejaVu Serif', serif; text-anchor: end; fill: #434d55" x="465.281565" y="165.197191" transform="rotate(-0 465.281565 165.197191)">−0.06</text>
     </g>
    </g>
    <g id="ytick_5">
     <g id="line2d_21">
      <path d="M 471.781565 115.86092 
L 748.512 115.86092 
" clip-path="url(#pa517438e03)" style="fill: none; stroke: #dde3e6; stroke-width: 0.6; stroke-linecap: square"/>
     </g>
     <g id="line2d_22">
      <g>
       <use xlink:href="#m7ba3392fea" x="471.781565" y="115.86092" style="fill: #434d55; stroke: #434d55; stroke-width: 0.8"/>
      </g>
     </g>
     <g id="text_7">
      <text style="font-size: 9px; font-family: 'Palatino Linotype', 'P052', 'DejaVu Serif', serif; text-anchor: end; fill: #434d55" x="465.281565" y="119.127639" transform="rotate(-0 465.281565 119.127639)">0</text>
     </g>
    </g>
    <g id="ytick_6">
     <g id="line2d_23">
      <path d="M 471.781565 69.791369 
L 748.512 69.791369 
" clip-path="url(#pa517438e03)" style="fill: none; stroke: #dde3e6; stroke-width: 0.6; stroke-linecap: square"/>
     </g>
     <g id="line2d_24">
      <g>
       <use xlink:href="#m7ba3392fea" x="471.781565" y="69.791369" style="fill: #434d55; stroke: #434d55; stroke-width: 0.8"/>
      </g>
     </g>
     <g id="text_8">
      <text style="font-size: 9px; font-family: 'Palatino Linotype', 'P052', 'DejaVu Serif', serif; text-anchor: end; fill: #434d55" x="465.281565" y="73.058088" transform="rotate(-0 465.281565 73.058088)">0.06</text>
     </g>
    </g>
    <g id="text_9">
     <text style="font-size: 10px; font-family: 'Palatino Linotype', 'P052', 'DejaVu Serif', serif; fill: #202a31" transform="translate(421.707503 158.0421) rotate(-90)">Military conflict</text>
     <text style="font-size: 10px; font-family: 'Palatino Linotype', 'P052', 'DejaVu Serif', serif; fill: #202a31" transform="translate(433.24844 173.201475) rotate(-90)">Oil-production growth</text>
    </g>
   </g>
   <g id="FillBetweenPolyCollection_3">
    <defs>
     <path id="m099a5ca8ad" d="M 471.781565 -563.297165 
L 471.781565 -456.316928 
L 477.546783 -510.591474 
L 483.312 -523.426773 
L 489.077217 -454.953832 
L 494.842435 -451.020443 
L 500.607652 -509.357954 
L 506.37287 -520.506539 
L 512.138087 -469.298229 
L 517.903304 -499.573441 
L 523.668522 -497.778669 
L 529.433739 -516.58153 
L 535.198957 -491.677132 
L 540.964174 -497.615736 
L 546.729391 -519.254325 
L 552.494609 -477.648469 
L 558.259826 -508.68787 
L 564.025043 -522.617233 
L 569.790261 -465.688289 
L 575.555478 -502.054427 
L 581.320696 -500.145866 
L 587.085913 -493.544645 
L 592.85113 -518.760482 
L 598.616348 -505.678591 
L 604.381565 -495.731299 
L 610.146783 -478.699666 
L 615.912 -529.820938 
L 621.677217 -475.57925 
L 627.442435 -485.018131 
L 633.207652 -516.732105 
L 638.97287 -498.057614 
L 644.738087 -487.640623 
L 650.503304 -489.144703 
L 656.268522 -509.604802 
L 662.033739 -519.410837 
L 667.798957 -497.005844 
L 673.564174 -482.172524 
L 679.329391 -519.419676 
L 685.094609 -473.878025 
L 690.859826 -497.023409 
L 696.625043 -494.149674 
L 702.390261 -503.9625 
L 708.155478 -523.738835 
L 713.920696 -500.59809 
L 719.685913 -487.923486 
L 725.45113 -494.454303 
L 731.216348 -493.127256 
L 736.981565 -482.981169 
L 742.746783 -516.72923 
L 748.512 -476.704874 
L 748.512 -543.656588 
L 748.512 -543.656588 
L 742.746783 -581.108458 
L 736.981565 -563.474523 
L 731.216348 -572.363559 
L 725.45113 -565.792691 
L 719.685913 -556.390827 
L 713.920696 -573.04392 
L 708.155478 -584.906556 
L 702.390261 -560.173033 
L 696.625043 -542.966291 
L 690.859826 -556.716821 
L 685.094609 -567.63112 
L 679.329391 -594.260831 
L 673.564174 -554.00013 
L 667.798957 -544.190878 
L 662.033739 -572.058622 
L 656.268522 -567.565968 
L 650.503304 -549.052113 
L 644.738087 -559.904634 
L 638.97287 -568.059957 
L 633.207652 -575.041549 
L 627.442435 -547.727425 
L 621.677217 -555.201081 
L 615.912 -595.943473 
L 610.146783 -538.318563 
L 604.381565 -558.460033 
L 598.616348 -556.408579 
L 592.85113 -595.35433 
L 587.085913 -557.858645 
L 581.320696 -562.225254 
L 575.555478 -589.699567 
L 569.790261 -555.320628 
L 564.025043 -575.701469 
L 558.259826 -574.396948 
L 552.494609 -543.070106 
L 546.729391 -588.317768 
L 540.964174 -566.610761 
L 535.198957 -564.157857 
L 529.433739 -571.684908 
L 523.668522 -550.220816 
L 517.903304 -573.811779 
L 512.138087 -551.802549 
L 506.37287 -584.919132 
L 500.607652 -582.348897 
L 494.842435 -558.109483 
L 489.077217 -564.016647 
L 483.312 -588.598306 
L 477.546783 -596.656807 
L 471.781565 -563.297165 
z
"/>
    </defs>
    <g clip-path="url(#pa517438e03)">
     <use xlink:href="#m099a5ca8ad" x="0" y="646.368225" style="fill: #183a56; fill-opacity: 0.12"/>
    </g>
   </g>
   <g id="FillBetweenPolyCollection_4">
    <defs>
     <path id="mc20150e141" d="M 471.781565 -554.697369 
L 471.781565 -464.916724 
L 477.546783 -517.509988 
L 483.312 -528.665702 
L 489.077217 -463.72104 
L 494.842435 -459.628985 
L 500.607652 -515.225461 
L 506.37287 -525.68446 
L 512.138087 -475.930485 
L 517.903304 -505.541221 
L 523.668522 -501.994324 
L 529.433739 -521.011113 
L 535.198957 -497.503624 
L 540.964174 -503.162024 
L 546.729391 -524.806112 
L 552.494609 -482.907503 
L 558.259826 -513.97001 
L 564.025043 -526.884503 
L 569.790261 -472.893543 
L 575.555478 -509.099937 
L 581.320696 -505.136227 
L 587.085913 -498.714639 
L 592.85113 -524.917614 
L 598.616348 -509.756611 
L 604.381565 -500.77386 
L 610.146783 -483.492237 
L 615.912 -535.136315 
L 621.677217 -481.979792 
L 627.442435 -490.059129 
L 633.207652 -521.419413 
L 638.97287 -503.684877 
L 644.738087 -493.449693 
L 650.503304 -493.960467 
L 656.268522 -514.264113 
L 662.033739 -523.643022 
L 667.798957 -500.798897 
L 673.564174 -487.946513 
L 679.329391 -525.435915 
L 685.094609 -481.414534 
L 690.859826 -501.82197 
L 696.625043 -498.073884 
L 702.390261 -508.481084 
L 708.155478 -528.655911 
L 713.920696 -506.421776 
L 719.685913 -493.427355 
L 725.45113 -500.188966 
L 731.216348 -499.496807 
L 736.981565 -489.45177 
L 742.746783 -521.904469 
L 748.512 -482.086907 
L 748.512 -538.274556 
L 748.512 -538.274556 
L 742.746783 -575.933219 
L 736.981565 -557.003922 
L 731.216348 -565.994009 
L 725.45113 -560.058028 
L 719.685913 -550.886959 
L 713.920696 -567.220233 
L 708.155478 -579.98948 
L 702.390261 -555.654449 
L 696.625043 -539.042081 
L 690.859826 -551.918261 
L 685.094609 -560.094611 
L 679.329391 -588.244592 
L 673.564174 -548.226141 
L 667.798957 -540.397826 
L 662.033739 -567.826437 
L 656.268522 -562.906657 
L 650.503304 -544.236349 
L 644.738087 -554.095563 
L 638.97287 -562.432695 
L 633.207652 -570.354241 
L 627.442435 -542.686427 
L 621.677217 -548.800539 
L 615.912 -590.628096 
L 610.146783 -533.525992 
L 604.381565 -553.417473 
L 598.616348 -552.330559 
L 592.85113 -589.197198 
L 587.085913 -552.68865 
L 581.320696 -557.234893 
L 575.555478 -582.654057 
L 569.790261 -548.115374 
L 564.025043 -571.434199 
L 558.259826 -569.114807 
L 552.494609 -537.811072 
L 546.729391 -582.76598 
L 540.964174 -561.064474 
L 535.198957 -558.331365 
L 529.433739 -567.255326 
L 523.668522 -546.005161 
L 517.903304 -567.843999 
L 512.138087 -545.170293 
L 506.37287 -579.741212 
L 500.607652 -576.481391 
L 494.842435 -549.500941 
L 489.077217 -555.249439 
L 483.312 -583.359377 
L 477.546783 -589.738292 
L 471.781565 -554.697369 
z
"/>
    </defs>
    <g clip-path="url(#pa517438e03)">
     <use xlink:href="#mc20150e141" x="0" y="646.368225" style="fill: #183a56; fill-opacity: 0.2"/>
    </g>
   </g>
   <g id="line2d_25">
    <path d="M 471.781565 115.86092 
L 748.512 115.86092 
" clip-path="url(#pa517438e03)" style="fill: none; stroke: #7a858c; stroke-width: 0.8; stroke-linecap: square"/>
   </g>
   <g id="patch_6">
    <path d="M 471.781565 202.6296 
L 471.781565 42.4296 
" style="fill: none; stroke: #92999d; stroke-width: 0.65; stroke-linejoin: miter; stroke-linecap: square"/>
   </g>
   <g id="patch_7">
    <path d="M 471.781565 202.6296 
L 748.512 202.6296 
" style="fill: none; stroke: #92999d; stroke-width: 0.65; stroke-linejoin: miter; stroke-linecap: square"/>
   </g>
   <g id="text_10">
    <text style="font-size: 9px; font-family: 'Palatino Linotype', 'P052', 'DejaVu Serif', serif; text-anchor: start; fill: #4d5962" x="478.699826" y="58.575037" transform="rotate(-0 478.699826 58.575037)">(b)</text>
   </g>
   <g id="line2d_26">
    <path d="M 471.781565 136.561178 
L 477.546783 92.744085 
L 483.312 90.355686 
L 489.077217 136.882986 
L 494.842435 141.803262 
L 500.607652 100.514799 
L 506.37287 93.655389 
L 512.138087 135.817836 
L 517.903304 109.675615 
L 523.668522 122.368482 
L 529.433739 102.235006 
L 535.198957 118.450731 
L 540.964174 114.254976 
L 546.729391 92.582179 
L 552.494609 136.008937 
L 558.259826 104.825816 
L 564.025043 97.208874 
L 569.790261 135.863766 
L 575.555478 100.491228 
L 581.320696 115.182665 
L 587.085913 120.66658 
L 592.85113 89.310819 
L 598.616348 115.32464 
L 604.381565 119.272559 
L 610.146783 137.859111 
L 615.912 83.486019 
L 621.677217 130.978059 
L 627.442435 129.995447 
L 633.207652 100.481398 
L 638.97287 113.309439 
L 644.738087 122.595597 
L 650.503304 127.269817 
L 656.268522 107.78284 
L 662.033739 100.633495 
L 667.798957 125.769864 
L 673.564174 128.281898 
L 679.329391 89.527972 
L 685.094609 125.613653 
L 690.859826 119.49811 
L 696.625043 127.810243 
L 702.390261 114.300459 
L 708.155478 92.045529 
L 713.920696 109.54722 
L 719.685913 124.211068 
L 725.45113 116.244728 
L 731.216348 113.622817 
L 736.981565 123.140379 
L 742.746783 97.449381 
L 748.512 136.187494 
" clip-path="url(#pa517438e03)" style="fill: none; stroke: #183a56; stroke-width: 1.9; stroke-linecap: square"/>
   </g>
  </g>
  <g id="axes_3">
   <g id="patch_8">
    <path d="M 112.032 406.0836 
L 388.762435 406.0836 
L 388.762435 245.8836 
L 112.032 245.8836 
z
" style="fill: #ffffff"/>
   </g>
   <g id="matplotlib.axis_5">
    <g id="xtick_11">
     <g id="line2d_27">
      <g>
       <use xlink:href="#m98487a3f67" x="112.032" y="406.0836" style="fill: #434d55; stroke: #434d55; stroke-width: 0.8"/>
      </g>
     </g>
    </g>
    <g id="xtick_12">
     <g id="line2d_28">
      <g>
       <use xlink:href="#m98487a3f67" x="181.214609" y="406.0836" style="fill: #434d55; stroke: #434d55; stroke-width: 0.8"/>
      </g>
     </g>
    </g>
    <g id="xtick_13">
     <g id="line2d_29">
      <g>
       <use xlink:href="#m98487a3f67" x="250.397217" y="406.0836" style="fill: #434d55; stroke: #434d55; stroke-width: 0.8"/>
      </g>
     </g>
    </g>
    <g id="xtick_14">
     <g id="line2d_30">
      <g>
       <use xlink:href="#m98487a3f67" x="319.579826" y="406.0836" style="fill: #434d55; stroke: #434d55; stroke-width: 0.8"/>
      </g>
     </g>
    </g>
    <g id="xtick_15">
     <g id="line2d_31">
      <g>
       <use xlink:href="#m98487a3f67" x="388.762435" y="406.0836" style="fill: #434d55; stroke: #434d55; stroke-width: 0.8"/>
      </g>
     </g>
    </g>
   </g>
   <g id="matplotlib.axis_6">
    <g id="ytick_7">
     <g id="line2d_32">
      <path d="M 112.032 388.929471 
L 388.762435 388.929471 
" clip-path="url(#p943c203f41)" style="fill: none; stroke: #dde3e6; stroke-width: 0.6; stroke-linecap: square"/>
     </g>
     <g id="line2d_33">
      <g>
       <use xlink:href="#m7ba3392fea" x="112.032" y="388.929471" style="fill: #434d55; stroke: #434d55; stroke-width: 0.8"/>
      </g>
     </g>
     <g id="text_11">
      <text style="font-size: 9px; font-family: 'Palatino Linotype', 'P052', 'DejaVu Serif', serif; text-anchor: end; fill: #434d55" x="105.532" y="392.196189" transform="rotate(-0 105.532 392.196189)">−0.4</text>
     </g>
    </g>
    <g id="ytick_8">
     <g id="line2d_34">
      <path d="M 112.032 348.414317 
L 388.762435 348.414317 
" clip-path="url(#p943c203f41)" style="fill: none; stroke: #dde3e6; stroke-width: 0.6; stroke-linecap: square"/>
     </g>
     <g id="line2d_35">
      <g>
       <use xlink:href="#m7ba3392fea" x="112.032" y="348.414317" style="fill: #434d55; stroke: #434d55; stroke-width: 0.8"/>
      </g>
     </g>
     <g id="text_12">
      <text style="font-size: 9px; font-family: 'Palatino Linotype', 'P052', 'DejaVu Serif', serif; text-anchor: end; fill: #434d55" x="105.532" y="351.681036" transform="rotate(-0 105.532 351.681036)">−0.2</text>
     </g>
    </g>
    <g id="ytick_9">
     <g id="line2d_36">
      <path d="M 112.032 307.899163 
L 388.762435 307.899163 
" clip-path="url(#p943c203f41)" style="fill: none; stroke: #dde3e6; stroke-width: 0.6; stroke-linecap: square"/>
     </g>
     <g id="line2d_37">
      <g>
       <use xlink:href="#m7ba3392fea" x="112.032" y="307.899163" style="fill: #434d55; stroke: #434d55; stroke-width: 0.8"/>
      </g>
     </g>
     <g id="text_13">
      <text style="font-size: 9px; font-family: 'Palatino Linotype', 'P052', 'DejaVu Serif', serif; text-anchor: end; fill: #434d55" x="105.532" y="311.165882" transform="rotate(-0 105.532 311.165882)">0</text>
     </g>
    </g>
    <g id="ytick_10">
     <g id="line2d_38">
      <path d="M 112.032 267.384009 
L 388.762435 267.384009 
" clip-path="url(#p943c203f41)" style="fill: none; stroke: #dde3e6; stroke-width: 0.6; stroke-linecap: square"/>
     </g>
     <g id="line2d_39">
      <g>
       <use xlink:href="#m7ba3392fea" x="112.032" y="267.384009" style="fill: #434d55; stroke: #434d55; stroke-width: 0.8"/>
      </g>
     </g>
     <g id="text_14">
      <text style="font-size: 9px; font-family: 'Palatino Linotype', 'P052', 'DejaVu Serif', serif; text-anchor: end; fill: #434d55" x="105.532" y="270.650728" transform="rotate(-0 105.532 270.650728)">0.2</text>
     </g>
    </g>
    <g id="text_15">
     <text style="font-size: 10px; font-family: 'Palatino Linotype', 'P052', 'DejaVu Serif', serif; fill: #202a31" transform="translate(66.498563 368.117194) rotate(-90)">Diplomatic tension</text>
     <text style="font-size: 10px; font-family: 'Palatino Linotype', 'P052', 'DejaVu Serif', serif; fill: #202a31" transform="translate(78.019188 388.98985) rotate(-90)">World industrial production</text>
    </g>
   </g>
   <g id="FillBetweenPolyCollection_5">
    <defs>
     <path id="md5972b49d9" d="M 112.032 -355.329722 
L 112.032 -331.979907 
L 117.797217 -339.108823 
L 123.562435 -333.865822 
L 129.327652 -324.28346 
L 135.09287 -322.61528 
L 140.858087 -312.709594 
L 146.623304 -305.930797 
L 152.388522 -304.566194 
L 158.153739 -281.147991 
L 163.918957 -280.926194 
L 169.684174 -282.973013 
L 175.449391 -286.387146 
L 181.214609 -291.767117 
L 186.979826 -288.443751 
L 192.745043 -287.093898 
L 198.510261 -281.563327 
L 204.275478 -261.116133 
L 210.040696 -268.803432 
L 215.805913 -256.788883 
L 221.57113 -253.408403 
L 227.336348 -256.117735 
L 233.101565 -257.931158 
L 238.866783 -260.50119 
L 244.632 -250.201953 
L 250.397217 -256.642997 
L 256.162435 -247.566443 
L 261.927652 -251.042769 
L 267.69287 -255.058431 
L 273.458087 -259.040362 
L 279.223304 -264.974171 
L 284.988522 -267.364107 
L 290.753739 -265.820974 
L 296.518957 -265.962695 
L 302.284174 -268.374726 
L 308.049391 -272.038508 
L 313.814609 -261.155986 
L 319.579826 -255.834999 
L 325.345043 -263.523836 
L 331.110261 -268.390259 
L 336.875478 -262.961228 
L 342.640696 -253.500329 
L 348.405913 -254.424632 
L 354.17113 -263.752703 
L 359.936348 -277.455175 
L 365.701565 -286.926316 
L 371.466783 -289.826885 
L 377.232 -291.040825 
L 382.997217 -303.03484 
L 388.762435 -302.472808 
L 388.762435 -393.202807 
L 388.762435 -393.202807 
L 382.997217 -391.728745 
L 377.232 -376.576426 
L 371.466783 -378.41548 
L 365.701565 -376.778402 
L 359.936348 -369.553174 
L 354.17113 -362.88089 
L 348.405913 -360.802542 
L 342.640696 -356.395639 
L 336.875478 -358.147822 
L 331.110261 -365.627905 
L 325.345043 -363.093563 
L 319.579826 -352.672202 
L 313.814609 -357.630439 
L 308.049391 -360.783999 
L 302.284174 -358.471655 
L 296.518957 -355.818586 
L 290.753739 -348.958616 
L 284.988522 -348.585212 
L 279.223304 -345.737712 
L 273.458087 -340.396391 
L 267.69287 -337.735847 
L 261.927652 -341.023642 
L 256.162435 -344.156993 
L 250.397217 -352.567262 
L 244.632 -349.801772 
L 238.866783 -359.368919 
L 233.101565 -371.118252 
L 227.336348 -374.492379 
L 221.57113 -357.887694 
L 215.805913 -371.039098 
L 210.040696 -377.980151 
L 204.275478 -352.600792 
L 198.510261 -355.899161 
L 192.745043 -357.20583 
L 186.979826 -356.242444 
L 181.214609 -361.208929 
L 175.449391 -358.782876 
L 169.684174 -360.708042 
L 163.918957 -364.419054 
L 158.153739 -367.879075 
L 152.388522 -372.193826 
L 146.623304 -360.764283 
L 140.858087 -364.530429 
L 135.09287 -370.762829 
L 129.327652 -366.06895 
L 123.562435 -369.442384 
L 117.797217 -369.899498 
L 112.032 -355.329722 
z
"/>
    </defs>
    <g clip-path="url(#p943c203f41)">
     <use xlink:href="#md5972b49d9" x="0" y="646.368225" style="fill: #183a56; fill-opacity: 0.12"/>
    </g>
   </g>
   <g id="FillBetweenPolyCollection_6">
    <defs>
     <path id="me9a2a320b5" d="M 112.032 -353.452706 
L 112.032 -333.856924 
L 117.797217 -341.583986 
L 123.562435 -336.725707 
L 129.327652 -327.642461 
L 135.09287 -326.485706 
L 140.858087 -316.875304 
L 146.623304 -310.338684 
L 152.388522 -310.002561 
L 158.153739 -288.120023 
L 163.918957 -287.637915 
L 169.684174 -289.221881 
L 175.449391 -292.206805 
L 181.214609 -297.34932 
L 186.979826 -293.893869 
L 192.745043 -292.72997 
L 198.510261 -287.538945 
L 204.275478 -268.47029 
L 210.040696 -277.579796 
L 215.805913 -265.973089 
L 221.57113 -261.807156 
L 227.336348 -265.63349 
L 233.101565 -267.029903 
L 238.866783 -268.448848 
L 244.632 -258.208461 
L 250.397217 -264.354039 
L 256.162435 -255.331046 
L 261.927652 -258.276041 
L 267.69287 -261.704602 
L 273.458087 -265.580311 
L 279.223304 -271.466492 
L 284.988522 -273.89321 
L 290.753739 -272.504141 
L 296.518957 -273.18592 
L 302.284174 -275.617327 
L 308.049391 -279.172472 
L 313.814609 -268.911256 
L 319.579826 -263.619429 
L 325.345043 -271.527925 
L 331.110261 -276.20688 
L 336.875478 -270.612971 
L 342.640696 -261.771751 
L 348.405913 -262.976009 
L 354.17113 -271.721298 
L 359.936348 -284.858636 
L 365.701565 -294.149235 
L 371.466783 -296.948237 
L 377.232 -297.916756 
L 382.997217 -310.164656 
L 388.762435 -309.7663 
L 388.762435 -385.909315 
L 388.762435 -385.909315 
L 382.997217 -384.598928 
L 377.232 -369.700495 
L 371.466783 -371.294129 
L 365.701565 -369.555482 
L 359.936348 -362.149713 
L 354.17113 -354.912295 
L 348.405913 -352.251165 
L 342.640696 -348.124217 
L 336.875478 -350.496079 
L 331.110261 -357.811284 
L 325.345043 -355.089474 
L 319.579826 -344.887772 
L 313.814609 -349.875169 
L 308.049391 -353.650035 
L 302.284174 -351.229053 
L 296.518957 -348.595361 
L 290.753739 -342.27545 
L 284.988522 -342.056109 
L 279.223304 -339.245392 
L 273.458087 -333.856443 
L 267.69287 -331.089676 
L 261.927652 -333.79037 
L 256.162435 -336.39239 
L 250.397217 -344.85622 
L 244.632 -341.795264 
L 238.866783 -351.421261 
L 233.101565 -362.019507 
L 227.336348 -364.976623 
L 221.57113 -349.488941 
L 215.805913 -361.854892 
L 210.040696 -369.203787 
L 204.275478 -345.246636 
L 198.510261 -349.923543 
L 192.745043 -351.569758 
L 186.979826 -350.792325 
L 181.214609 -355.626726 
L 175.449391 -352.963217 
L 169.684174 -354.459174 
L 163.918957 -357.707332 
L 158.153739 -360.907043 
L 152.388522 -366.757459 
L 146.623304 -356.356396 
L 140.858087 -360.36472 
L 135.09287 -366.892403 
L 129.327652 -362.709949 
L 123.562435 -366.582499 
L 117.797217 -367.424335 
L 112.032 -353.452706 
z
"/>
    </defs>
    <g clip-path="url(#p943c203f41)">
     <use xlink:href="#me9a2a320b5" x="0" y="646.368225" style="fill: #183a56; fill-opacity: 0.2"/>
    </g>
   </g>
   <g id="line2d_40">
    <path d="M 112.032 307.899163 
L 388.762435 307.899163 
" clip-path="url(#p943c203f41)" style="fill: none; stroke: #7a858c; stroke-width: 0.8; stroke-linecap: square"/>
   </g>
   <g id="patch_9">
    <path d="M 112.032 406.0836 
L 112.032 245.8836 
" style="fill: none; stroke: #92999d; stroke-width: 0.65; stroke-linejoin: miter; stroke-linecap: square"/>
   </g>
   <g id="patch_10">
    <path d="M 112.032 406.0836 
L 388.762435 406.0836 
" style="fill: none; stroke: #92999d; stroke-width: 0.65; stroke-linejoin: miter; stroke-linecap: square"/>
   </g>
   <g id="text_16">
    <text style="font-size: 9px; font-family: 'Palatino Linotype', 'P052', 'DejaVu Serif', serif; text-anchor: start; fill: #4d5962" x="118.950261" y="262.029037" transform="rotate(-0 118.950261 262.029037)">(c)</text>
   </g>
   <g id="line2d_41">
    <path d="M 112.032 302.71341 
L 117.797217 291.864064 
L 123.562435 294.714122 
L 129.327652 301.19202 
L 135.09287 299.67917 
L 140.858087 307.748213 
L 146.623304 313.020685 
L 152.388522 307.988215 
L 158.153739 321.854692 
L 163.918957 323.695601 
L 169.684174 324.527698 
L 175.449391 323.783214 
L 181.214609 319.880202 
L 186.979826 324.025128 
L 192.745043 324.218361 
L 198.510261 327.636981 
L 204.275478 339.509762 
L 210.040696 322.976434 
L 215.805913 332.454234 
L 221.57113 340.720177 
L 227.336348 331.063168 
L 233.101565 331.84352 
L 238.866783 336.43317 
L 244.632 346.366363 
L 250.397217 341.763095 
L 256.162435 350.506507 
L 261.927652 350.335019 
L 267.69287 349.971086 
L 273.458087 346.649848 
L 279.223304 341.012283 
L 284.988522 338.393566 
L 290.753739 338.97843 
L 296.518957 335.477584 
L 302.284174 332.945035 
L 308.049391 329.956972 
L 313.814609 336.975012 
L 319.579826 342.114625 
L 325.345043 333.059525 
L 331.110261 329.359143 
L 336.875478 335.8137 
L 342.640696 341.420241 
L 348.405913 338.754638 
L 354.17113 333.051429 
L 359.936348 322.864051 
L 365.701565 314.515866 
L 371.466783 312.247042 
L 377.232 312.5596 
L 382.997217 298.986433 
L 388.762435 298.530418 
" clip-path="url(#p943c203f41)" style="fill: none; stroke: #183a56; stroke-width: 1.9; stroke-linecap: square"/>
   </g>
  </g>
  <g id="axes_4">
   <g id="patch_11">
    <path d="M 471.781565 406.0836 
L 748.512 406.0836 
L 748.512 245.8836 
L 471.781565 245.8836 
z
" style="fill: #ffffff"/>
   </g>
   <g id="matplotlib.axis_7">
    <g id="xtick_16">
     <g id="line2d_42">
      <g>
       <use xlink:href="#m98487a3f67" x="471.781565" y="406.0836" style="fill: #434d55; stroke: #434d55; stroke-width: 0.8"/>
      </g>
     </g>
    </g>
    <g id="xtick_17">
     <g id="line2d_43">
      <g>
       <use xlink:href="#m98487a3f67" x="540.964174" y="406.0836" style="fill: #434d55; stroke: #434d55; stroke-width: 0.8"/>
      </g>
     </g>
    </g>
    <g id="xtick_18">
     <g id="line2d_44">
      <g>
       <use xlink:href="#m98487a3f67" x="610.146783" y="406.0836" style="fill: #434d55; stroke: #434d55; stroke-width: 0.8"/>
      </g>
     </g>
    </g>
    <g id="xtick_19">
     <g id="line2d_45">
      <g>
       <use xlink:href="#m98487a3f67" x="679.329391" y="406.0836" style="fill: #434d55; stroke: #434d55; stroke-width: 0.8"/>
      </g>
     </g>
    </g>
    <g id="xtick_20">
     <g id="line2d_46">
      <g>
       <use xlink:href="#m98487a3f67" x="748.512" y="406.0836" style="fill: #434d55; stroke: #434d55; stroke-width: 0.8"/>
      </g>
     </g>
    </g>
   </g>
   <g id="matplotlib.axis_8">
    <g id="ytick_11">
     <g id="line2d_47">
      <path d="M 471.781565 385.52627 
L 748.512 385.52627 
" clip-path="url(#pa22ee7906f)" style="fill: none; stroke: #dde3e6; stroke-width: 0.6; stroke-linecap: square"/>
     </g>
     <g id="line2d_48">
      <g>
       <use xlink:href="#m7ba3392fea" x="471.781565" y="385.52627" style="fill: #434d55; stroke: #434d55; stroke-width: 0.8"/>
      </g>
     </g>
     <g id="text_17">
      <text style="font-size: 9px; font-family: 'Palatino Linotype', 'P052', 'DejaVu Serif', serif; text-anchor: end; fill: #434d55" x="465.281565" y="388.792989" transform="rotate(-0 465.281565 388.792989)">−0.2</text>
     </g>
    </g>
    <g id="ytick_12">
     <g id="line2d_49">
      <path d="M 471.781565 336.641208 
L 748.512 336.641208 
" clip-path="url(#pa22ee7906f)" style="fill: none; stroke: #dde3e6; stroke-width: 0.6; stroke-linecap: square"/>
     </g>
     <g id="line2d_50">
      <g>
       <use xlink:href="#m7ba3392fea" x="471.781565" y="336.641208" style="fill: #434d55; stroke: #434d55; stroke-width: 0.8"/>
      </g>
     </g>
     <g id="text_18">
      <text style="font-size: 9px; font-family: 'Palatino Linotype', 'P052', 'DejaVu Serif', serif; text-anchor: end; fill: #434d55" x="465.281565" y="339.907926" transform="rotate(-0 465.281565 339.907926)">0</text>
     </g>
    </g>
    <g id="ytick_13">
     <g id="line2d_51">
      <path d="M 471.781565 287.756145 
L 748.512 287.756145 
" clip-path="url(#pa22ee7906f)" style="fill: none; stroke: #dde3e6; stroke-width: 0.6; stroke-linecap: square"/>
     </g>
     <g id="line2d_52">
      <g>
       <use xlink:href="#m7ba3392fea" x="471.781565" y="287.756145" style="fill: #434d55; stroke: #434d55; stroke-width: 0.8"/>
      </g>
     </g>
     <g id="text_19">
      <text style="font-size: 9px; font-family: 'Palatino Linotype', 'P052', 'DejaVu Serif', serif; text-anchor: end; fill: #434d55" x="465.281565" y="291.022864" transform="rotate(-0 465.281565 291.022864)">0.2</text>
     </g>
    </g>
    <g id="text_20">
     <text style="font-size: 10px; font-family: 'Palatino Linotype', 'P052', 'DejaVu Serif', serif; fill: #202a31" transform="translate(426.227815 368.117194) rotate(-90)">Diplomatic tension</text>
     <text style="font-size: 10px; font-family: 'Palatino Linotype', 'P052', 'DejaVu Serif', serif; fill: #202a31" transform="translate(437.74844 376.655475) rotate(-90)">Oil-production growth</text>
    </g>
   </g>
   <g id="FillBetweenPolyCollection_7">
    <defs>
     <path id="ma51fada8b8" d="M 471.781565 -332.293891 
L 471.781565 -300.067336 
L 477.546783 -296.546414 
L 483.312 -298.179976 
L 489.077217 -276.17477 
L 494.842435 -287.752413 
L 500.607652 -291.968356 
L 506.37287 -296.391714 
L 512.138087 -292.354697 
L 517.903304 -287.303974 
L 523.668522 -248.652181 
L 529.433739 -304.525739 
L 535.198957 -266.446288 
L 540.964174 -293.499791 
L 546.729391 -306.34681 
L 552.494609 -281.189805 
L 558.259826 -293.506029 
L 564.025043 -297.673663 
L 569.790261 -247.566443 
L 575.555478 -273.039422 
L 581.320696 -263.401958 
L 587.085913 -266.666935 
L 592.85113 -286.920795 
L 598.616348 -278.326484 
L 604.381565 -285.140591 
L 610.146783 -259.204314 
L 615.912 -303.181073 
L 621.677217 -253.127823 
L 627.442435 -283.877 
L 633.207652 -287.217067 
L 638.97287 -301.075173 
L 644.738087 -295.768652 
L 650.503304 -282.337445 
L 656.268522 -294.87997 
L 662.033739 -298.323639 
L 667.798957 -297.498929 
L 673.564174 -283.920934 
L 679.329391 -278.867519 
L 685.094609 -294.664872 
L 690.859826 -289.871571 
L 696.625043 -283.975122 
L 702.390261 -278.712688 
L 708.155478 -270.974017 
L 713.920696 -269.323633 
L 719.685913 -304.473704 
L 725.45113 -304.849412 
L 731.216348 -290.907818 
L 736.981565 -299.409698 
L 742.746783 -302.44736 
L 748.512 -286.898537 
L 748.512 -323.966097 
L 748.512 -323.966097 
L 742.746783 -337.434491 
L 736.981565 -332.124419 
L 731.216348 -333.190725 
L 725.45113 -339.288731 
L 719.685913 -335.736177 
L 713.920696 -318.919963 
L 708.155478 -332.737533 
L 702.390261 -322.006652 
L 696.625043 -319.630143 
L 690.859826 -355.863661 
L 685.094609 -334.827083 
L 679.329391 -339.4132 
L 673.564174 -322.941293 
L 667.798957 -332.632149 
L 662.033739 -351.023952 
L 656.268522 -332.188329 
L 650.503304 -321.635206 
L 644.738087 -333.968477 
L 638.97287 -338.493612 
L 633.207652 -321.045095 
L 627.442435 -320.960916 
L 621.677217 -318.855015 
L 615.912 -342.649897 
L 610.146783 -332.988817 
L 604.381565 -320.513783 
L 598.616348 -336.700234 
L 592.85113 -393.202807 
L 587.085913 -316.879155 
L 581.320696 -349.568547 
L 575.555478 -353.045128 
L 569.790261 -337.700626 
L 564.025043 -323.924528 
L 558.259826 -324.44962 
L 552.494609 -315.516028 
L 546.729391 -338.849186 
L 540.964174 -329.163801 
L 535.198957 -319.720977 
L 529.433739 -342.15083 
L 523.668522 -324.649425 
L 517.903304 -339.965979 
L 512.138087 -325.298197 
L 506.37287 -321.574253 
L 500.607652 -327.449051 
L 494.842435 -327.868639 
L 489.077217 -322.878259 
L 483.312 -343.251598 
L 477.546783 -340.995725 
L 471.781565 -332.293891 
z
"/>
    </defs>
    <g clip-path="url(#pa22ee7906f)">
     <use xlink:href="#ma51fada8b8" x="0" y="646.368225" style="fill: #183a56; fill-opacity: 0.12"/>
    </g>
   </g>
   <g id="FillBetweenPolyCollection_8">
    <defs>
     <path id="mc2ae780444" d="M 471.781565 -329.703302 
L 471.781565 -302.657925 
L 477.546783 -300.11955 
L 483.312 -301.803138 
L 489.077217 -279.929113 
L 494.842435 -290.977227 
L 500.607652 -294.820535 
L 506.37287 -298.416057 
L 512.138087 -295.002919 
L 517.903304 -291.537303 
L 523.668522 -254.761354 
L 529.433739 -307.550299 
L 535.198957 -270.728868 
L 540.964174 -296.366706 
L 546.729391 -308.959571 
L 552.494609 -283.949179 
L 558.259826 -295.993484 
L 564.025043 -299.783885 
L 569.790261 -254.812039 
L 575.555478 -279.470822 
L 581.320696 -270.328612 
L 587.085913 -270.703333 
L 592.85113 -295.464463 
L 598.616348 -283.018962 
L 604.381565 -287.984127 
L 610.146783 -265.135612 
L 615.912 -306.353845 
L 621.677217 -258.41142 
L 627.442435 -286.858056 
L 633.207652 -289.936393 
L 638.97287 -304.083121 
L 644.738087 -298.839412 
L 650.503304 -285.496465 
L 656.268522 -297.879069 
L 662.033739 -302.560047 
L 667.798957 -300.323175 
L 673.564174 -287.057655 
L 679.329391 -283.734591 
L 685.094609 -297.893382 
L 690.859826 -295.176462 
L 696.625043 -286.841314 
L 702.390261 -282.19295 
L 708.155478 -275.938987 
L 713.920696 -273.310522 
L 719.685913 -306.986793 
L 725.45113 -307.617878 
L 731.216348 -294.306804 
L 736.981565 -302.039529 
L 742.746783 -305.259862 
L 748.512 -289.878278 
L 748.512 -320.986355 
L 748.512 -320.986355 
L 742.746783 -334.621988 
L 736.981565 -329.494588 
L 731.216348 -329.791738 
L 725.45113 -336.520265 
L 719.685913 -333.223088 
L 713.920696 -314.933075 
L 708.155478 -327.772563 
L 702.390261 -318.52639 
L 696.625043 -316.763951 
L 690.859826 -350.55877 
L 685.094609 -331.598573 
L 679.329391 -334.546128 
L 673.564174 -319.804572 
L 667.798957 -329.807902 
L 662.033739 -346.787544 
L 656.268522 -329.189231 
L 650.503304 -318.476185 
L 644.738087 -330.897717 
L 638.97287 -335.485664 
L 633.207652 -318.325769 
L 627.442435 -317.97986 
L 621.677217 -313.571418 
L 615.912 -339.477126 
L 610.146783 -327.057519 
L 604.381565 -317.670247 
L 598.616348 -332.007757 
L 592.85113 -384.659139 
L 587.085913 -312.842757 
L 581.320696 -342.641893 
L 575.555478 -346.613727 
L 569.790261 -330.45503 
L 564.025043 -321.814306 
L 558.259826 -321.962165 
L 552.494609 -312.756654 
L 546.729391 -336.236425 
L 540.964174 -326.296887 
L 535.198957 -315.438396 
L 529.433739 -339.12627 
L 523.668522 -318.540252 
L 517.903304 -335.73265 
L 512.138087 -322.649975 
L 506.37287 -319.54991 
L 500.607652 -324.596872 
L 494.842435 -324.643825 
L 489.077217 -319.123916 
L 483.312 -339.628436 
L 477.546783 -337.422588 
L 471.781565 -329.703302 
z
"/>
    </defs>
    <g clip-path="url(#pa22ee7906f)">
     <use xlink:href="#mc2ae780444" x="0" y="646.368225" style="fill: #183a56; fill-opacity: 0.2"/>
    </g>
   </g>
   <g id="line2d_53">
    <path d="M 471.781565 336.641208 
L 748.512 336.641208 
" clip-path="url(#pa22ee7906f)" style="fill: none; stroke: #7a858c; stroke-width: 0.8; stroke-linecap: square"/>
   </g>
   <g id="patch_12">
    <path d="M 471.781565 406.0836 
L 471.781565 245.8836 
" style="fill: none; stroke: #92999d; stroke-width: 0.65; stroke-linejoin: miter; stroke-linecap: square"/>
   </g>
   <g id="patch_13">
    <path d="M 471.781565 406.0836 
L 748.512 406.0836 
" style="fill: none; stroke: #92999d; stroke-width: 0.65; stroke-linejoin: miter; stroke-linecap: square"/>
   </g>
   <g id="text_21">
    <text style="font-size: 9px; font-family: 'Palatino Linotype', 'P052', 'DejaVu Serif', serif; text-anchor: start; fill: #4d5962" x="478.699826" y="262.029037" transform="rotate(-0 478.699826 262.029037)">(d)</text>
   </g>
   <g id="line2d_54">
    <path d="M 471.781565 330.187612 
L 477.546783 327.597156 
L 483.312 325.652438 
L 489.077217 346.841711 
L 494.842435 338.557699 
L 500.607652 336.659521 
L 506.37287 337.385242 
L 512.138087 337.541778 
L 517.903304 332.733248 
L 523.668522 359.717422 
L 529.433739 323.029941 
L 535.198957 353.284593 
L 540.964174 335.036429 
L 546.729391 323.770227 
L 552.494609 348.015309 
L 558.259826 337.3904 
L 564.025043 335.569129 
L 569.790261 353.73469 
L 575.555478 333.32595 
L 581.320696 339.882972 
L 587.085913 354.59518 
L 592.85113 306.306424 
L 598.616348 338.854866 
L 604.381565 343.541038 
L 610.146783 350.271659 
L 615.912 323.45274 
L 621.677217 360.376806 
L 627.442435 343.949267 
L 633.207652 342.237144 
L 638.97287 326.583833 
L 644.738087 331.499661 
L 650.503304 344.3819 
L 656.268522 332.834075 
L 662.033739 321.694429 
L 667.798957 331.302686 
L 673.564174 342.937111 
L 679.329391 337.227865 
L 685.094609 331.622247 
L 690.859826 323.500609 
L 696.625043 344.565593 
L 702.390261 346.008555 
L 708.155478 344.51245 
L 713.920696 352.246427 
L 719.685913 326.263284 
L 725.45113 324.299153 
L 731.216348 334.318954 
L 736.981565 330.601166 
L 742.746783 326.4273 
L 748.512 340.935908 
" clip-path="url(#pa22ee7906f)" style="fill: none; stroke: #183a56; stroke-width: 1.9; stroke-linecap: square"/>
   </g>
  </g>
  <g id="axes_5">
   <g id="patch_14">
    <path d="M 112.032 609.5376 
L 388.762435 609.5376 
L 388.762435 449.3376 
L 112.032 449.3376 
z
" style="fill: #ffffff"/>
   </g>
   <g id="matplotlib.axis_9">
    <g id="xtick_21">
     <g id="line2d_55">
      <g>
       <use xlink:href="#m98487a3f67" x="112.032" y="609.5376" style="fill: #434d55; stroke: #434d55; stroke-width: 0.8"/>
      </g>
     </g>
     <g id="text_22">
      <text style="font-size: 9px; font-family: 'Palatino Linotype', 'P052', 'DejaVu Serif', serif; text-anchor: middle; fill: #434d55" x="112.032" y="622.571037" transform="rotate(-0 112.032 622.571037)">0</text>
     </g>
    </g>
    <g id="xtick_22">
     <g id="line2d_56">
      <g>
       <use xlink:href="#m98487a3f67" x="181.214609" y="609.5376" style="fill: #434d55; stroke: #434d55; stroke-width: 0.8"/>
      </g>
     </g>
     <g id="text_23">
      <text style="font-size: 9px; font-family: 'Palatino Linotype', 'P052', 'DejaVu Serif', serif; text-anchor: middle; fill: #434d55" x="181.214609" y="622.571037" transform="rotate(-0 181.214609 622.571037)">12</text>
     </g>
    </g>
    <g id="xtick_23">
     <g id="line2d_57">
      <g>
       <use xlink:href="#m98487a3f67" x="250.397217" y="609.5376" style="fill: #434d55; stroke: #434d55; stroke-width: 0.8"/>
      </g>
     </g>
     <g id="text_24">
      <text style="font-size: 9px; font-family: 'Palatino Linotype', 'P052', 'DejaVu Serif', serif; text-anchor: middle; fill: #434d55" x="250.397217" y="622.571037" transform="rotate(-0 250.397217 622.571037)">24</text>
     </g>
    </g>
    <g id="xtick_24">
     <g id="line2d_58">
      <g>
       <use xlink:href="#m98487a3f67" x="319.579826" y="609.5376" style="fill: #434d55; stroke: #434d55; stroke-width: 0.8"/>
      </g>
     </g>
     <g id="text_25">
      <text style="font-size: 9px; font-family: 'Palatino Linotype', 'P052', 'DejaVu Serif', serif; text-anchor: middle; fill: #434d55" x="319.579826" y="622.571037" transform="rotate(-0 319.579826 622.571037)">36</text>
     </g>
    </g>
    <g id="xtick_25">
     <g id="line2d_59">
      <g>
       <use xlink:href="#m98487a3f67" x="388.762435" y="609.5376" style="fill: #434d55; stroke: #434d55; stroke-width: 0.8"/>
      </g>
     </g>
     <g id="text_26">
      <text style="font-size: 9px; font-family: 'Palatino Linotype', 'P052', 'DejaVu Serif', serif; text-anchor: middle; fill: #434d55" x="388.762435" y="622.571037" transform="rotate(-0 388.762435 622.571037)">48</text>
     </g>
    </g>
    <g id="text_27">
     <text style="font-size: 10px; font-family: 'Palatino Linotype', 'P052', 'DejaVu Serif', serif; text-anchor: middle; fill: #202a31" x="250.397217" y="636.35885" transform="rotate(-0 250.397217 636.35885)">Horizon (months)</text>
    </g>
   </g>
   <g id="matplotlib.axis_10">
    <g id="ytick_14">
     <g id="line2d_60">
      <path d="M 112.032 583.605778 
L 388.762435 583.605778 
" clip-path="url(#p0c7f00689a)" style="fill: none; stroke: #dde3e6; stroke-width: 0.6; stroke-linecap: square"/>
     </g>
     <g id="line2d_61">
      <g>
       <use xlink:href="#m7ba3392fea" x="112.032" y="583.605778" style="fill: #434d55; stroke: #434d55; stroke-width: 0.8"/>
      </g>
     </g>
     <g id="text_28">
      <text style="font-size: 9px; font-family: 'Palatino Linotype', 'P052', 'DejaVu Serif', serif; text-anchor: end; fill: #434d55" x="105.532" y="586.872497" transform="rotate(-0 105.532 586.872497)">−0.15</text>
     </g>
    </g>
    <g id="ytick_15">
     <g id="line2d_62">
      <path d="M 112.032 533.183854 
L 388.762435 533.183854 
" clip-path="url(#p0c7f00689a)" style="fill: none; stroke: #dde3e6; stroke-width: 0.6; stroke-linecap: square"/>
     </g>
     <g id="line2d_63">
      <g>
       <use xlink:href="#m7ba3392fea" x="112.032" y="533.183854" style="fill: #434d55; stroke: #434d55; stroke-width: 0.8"/>
      </g>
     </g>
     <g id="text_29">
      <text style="font-size: 9px; font-family: 'Palatino Linotype', 'P052', 'DejaVu Serif', serif; text-anchor: end; fill: #434d55" x="105.532" y="536.450573" transform="rotate(-0 105.532 536.450573)">0</text>
     </g>
    </g>
    <g id="ytick_16">
     <g id="line2d_64">
      <path d="M 112.032 482.76193 
L 388.762435 482.76193 
" clip-path="url(#p0c7f00689a)" style="fill: none; stroke: #dde3e6; stroke-width: 0.6; stroke-linecap: square"/>
     </g>
     <g id="line2d_65">
      <g>
       <use xlink:href="#m7ba3392fea" x="112.032" y="482.76193" style="fill: #434d55; stroke: #434d55; stroke-width: 0.8"/>
      </g>
     </g>
     <g id="text_30">
      <text style="font-size: 9px; font-family: 'Palatino Linotype', 'P052', 'DejaVu Serif', serif; text-anchor: end; fill: #434d55" x="105.532" y="486.028649" transform="rotate(-0 105.532 486.028649)">0.15</text>
     </g>
    </g>
    <g id="text_31">
     <text style="font-size: 10px; font-family: 'Palatino Linotype', 'P052', 'DejaVu Serif', serif; fill: #202a31" transform="translate(61.998563 561.442287) rotate(-90)">Nuclear threat</text>
     <text style="font-size: 10px; font-family: 'Palatino Linotype', 'P052', 'DejaVu Serif', serif; fill: #202a31" transform="translate(73.519188 592.44385) rotate(-90)">World industrial production</text>
    </g>
   </g>
   <g id="FillBetweenPolyCollection_9">
    <defs>
     <path id="m9e1f4d37cb" d="M 112.032 -118.773712 
L 112.032 -106.210291 
L 117.797217 -105.194727 
L 123.562435 -102.718754 
L 129.327652 -102.120492 
L 135.09287 -102.29103 
L 140.858087 -101.070356 
L 146.623304 -97.019232 
L 152.388522 -96.637978 
L 158.153739 -96.868875 
L 163.918957 -94.841076 
L 169.684174 -92.254869 
L 175.449391 -91.831611 
L 181.214609 -102.787677 
L 186.979826 -99.95015 
L 192.745043 -103.689398 
L 198.510261 -105.358115 
L 204.275478 -110.046537 
L 210.040696 -110.095335 
L 215.805913 -112.528442 
L 221.57113 -115.32046 
L 227.336348 -116.955168 
L 233.101565 -122.174193 
L 238.866783 -116.708043 
L 244.632 -112.893583 
L 250.397217 -111.334305 
L 256.162435 -103.028853 
L 261.927652 -95.386126 
L 267.69287 -87.762094 
L 273.458087 -89.678752 
L 279.223304 -74.063844 
L 284.988522 -74.516294 
L 290.753739 -76.45244 
L 296.518957 -50.775855 
L 302.284174 -44.112443 
L 308.049391 -58.06427 
L 313.814609 -72.525218 
L 319.579826 -66.687731 
L 325.345043 -69.271921 
L 331.110261 -73.81271 
L 336.875478 -83.890025 
L 342.640696 -76.394582 
L 348.405913 -79.60556 
L 354.17113 -80.754416 
L 359.936348 -69.836631 
L 365.701565 -74.347386 
L 371.466783 -76.983963 
L 377.232 -79.279432 
L 382.997217 -85.577238 
L 388.762435 -80.491755 
L 388.762435 -161.944091 
L 388.762435 -161.944091 
L 382.997217 -167.378258 
L 377.232 -161.015848 
L 371.466783 -163.140841 
L 365.701565 -164.073492 
L 359.936348 -162.935134 
L 354.17113 -170.513717 
L 348.405913 -165.123814 
L 342.640696 -158.686608 
L 336.875478 -164.663339 
L 331.110261 -158.949158 
L 325.345043 -162.006016 
L 319.579826 -168.14558 
L 313.814609 -174.610007 
L 308.049391 -166.439484 
L 302.284174 -173.979855 
L 296.518957 -189.748807 
L 290.753739 -189.621636 
L 284.988522 -173.674474 
L 279.223304 -174.960669 
L 273.458087 -182.519036 
L 267.69287 -178.138049 
L 261.927652 -179.056947 
L 256.162435 -176.671704 
L 250.397217 -177.974372 
L 244.632 -173.049429 
L 238.866783 -174.813543 
L 233.101565 -180.322931 
L 227.336348 -174.289055 
L 221.57113 -170.6244 
L 215.805913 -168.231982 
L 210.040696 -167.12936 
L 204.275478 -166.249308 
L 198.510261 -162.125461 
L 192.745043 -160.030221 
L 186.979826 -157.408694 
L 181.214609 -162.568459 
L 175.449391 -148.728065 
L 169.684174 -144.079781 
L 163.918957 -142.469443 
L 158.153739 -141.993391 
L 152.388522 -139.86976 
L 146.623304 -136.330069 
L 140.858087 -136.363657 
L 135.09287 -134.541232 
L 129.327652 -131.185788 
L 123.562435 -127.453277 
L 117.797217 -124.541008 
L 112.032 -118.773712 
z
"/>
    </defs>
    <g clip-path="url(#p0c7f00689a)">
     <use xlink:href="#m9e1f4d37cb" x="0" y="646.368225" style="fill: #183a56; fill-opacity: 0.12"/>
    </g>
   </g>
   <g id="FillBetweenPolyCollection_10">
    <defs>
     <path id="mf8ebcb028d" d="M 112.032 -117.763779 
L 112.032 -107.220224 
L 117.797217 -106.749912 
L 123.562435 -104.707083 
L 129.327652 -104.456957 
L 135.09287 -104.883519 
L 140.858087 -103.90747 
L 146.623304 -100.179304 
L 152.388522 -100.113241 
L 158.153739 -100.496289 
L 163.918957 -98.669766 
L 169.684174 -96.420906 
L 175.449391 -96.405333 
L 181.214609 -107.593261 
L 186.979826 -104.569057 
L 192.745043 -108.218455 
L 198.510261 -109.921459 
L 204.275478 -114.564497 
L 210.040696 -114.680117 
L 215.805913 -117.00627 
L 221.57113 -119.766165 
L 227.336348 -121.564054 
L 233.101565 -126.848583 
L 238.866783 -121.378957 
L 244.632 -117.729317 
L 250.397217 -116.691284 
L 256.162435 -108.948765 
L 261.927652 -102.112153 
L 267.69287 -95.027126 
L 273.458087 -97.141883 
L 279.223304 -82.174614 
L 284.988522 -82.4873 
L 290.753739 -85.549746 
L 296.518957 -61.947442 
L 302.284174 -54.552065 
L 308.049391 -66.776204 
L 313.814609 -80.731485 
L 319.579826 -74.8436 
L 325.345043 -76.726516 
L 331.110261 -80.656554 
L 336.875478 -90.383131 
L 342.640696 -83.009772 
L 348.405913 -86.480096 
L 354.17113 -87.969876 
L 359.936348 -77.32052 
L 365.701565 -81.560178 
L 371.466783 -83.909837 
L 377.232 -85.849959 
L 382.997217 -92.152958 
L 388.762435 -87.039445 
L 388.762435 -155.396401 
L 388.762435 -155.396401 
L 382.997217 -160.802538 
L 377.232 -154.445321 
L 371.466783 -156.214968 
L 365.701565 -156.8607 
L 359.936348 -155.451246 
L 354.17113 -163.298256 
L 348.405913 -158.249277 
L 342.640696 -152.071418 
L 336.875478 -158.170233 
L 331.110261 -152.105314 
L 325.345043 -154.551422 
L 319.579826 -159.989711 
L 313.814609 -166.403741 
L 308.049391 -157.72755 
L 302.284174 -163.540232 
L 296.518957 -178.57722 
L 290.753739 -180.52433 
L 284.988522 -165.703468 
L 279.223304 -166.849899 
L 273.458087 -175.055905 
L 267.69287 -170.873017 
L 261.927652 -172.33092 
L 256.162435 -170.751793 
L 250.397217 -172.617392 
L 244.632 -168.213695 
L 238.866783 -170.142629 
L 233.101565 -175.648542 
L 227.336348 -169.680169 
L 221.57113 -166.178694 
L 215.805913 -163.754154 
L 210.040696 -162.544579 
L 204.275478 -161.731349 
L 198.510261 -157.562118 
L 192.745043 -155.501164 
L 186.979826 -152.789787 
L 181.214609 -157.762875 
L 175.449391 -144.154343 
L 169.684174 -139.913744 
L 163.918957 -138.640753 
L 158.153739 -138.365976 
L 152.388522 -136.394496 
L 146.623304 -133.169998 
L 140.858087 -133.526543 
L 135.09287 -131.948742 
L 129.327652 -128.849323 
L 123.562435 -125.464948 
L 117.797217 -122.985823 
L 112.032 -117.763779 
z
"/>
    </defs>
    <g clip-path="url(#p0c7f00689a)">
     <use xlink:href="#mf8ebcb028d" x="0" y="646.368225" style="fill: #183a56; fill-opacity: 0.2"/>
    </g>
   </g>
   <g id="line2d_66">
    <path d="M 112.032 533.183854 
L 388.762435 533.183854 
" clip-path="url(#p0c7f00689a)" style="fill: none; stroke: #7a858c; stroke-width: 0.8; stroke-linecap: square"/>
   </g>
   <g id="patch_15">
    <path d="M 112.032 609.5376 
L 112.032 449.3376 
" style="fill: none; stroke: #92999d; stroke-width: 0.65; stroke-linejoin: miter; stroke-linecap: square"/>
   </g>
   <g id="patch_16">
    <path d="M 112.032 609.5376 
L 388.762435 609.5376 
" style="fill: none; stroke: #92999d; stroke-width: 0.65; stroke-linejoin: miter; stroke-linecap: square"/>
   </g>
   <g id="text_32">
    <text style="font-size: 9px; font-family: 'Palatino Linotype', 'P052', 'DejaVu Serif', serif; text-anchor: start; fill: #4d5962" x="118.950261" y="465.483037" transform="rotate(-0 118.950261 465.483037)">(e)</text>
   </g>
   <g id="line2d_67">
    <path d="M 112.032 533.876224 
L 117.797217 531.500357 
L 123.562435 531.28221 
L 129.327652 529.715085 
L 135.09287 527.952094 
L 140.858087 527.651218 
L 146.623304 529.693574 
L 152.388522 528.114356 
L 158.153739 526.937092 
L 163.918957 527.712965 
L 169.684174 528.2009 
L 175.449391 526.088387 
L 181.214609 513.690157 
L 186.979826 517.688803 
L 192.745043 514.508415 
L 198.510261 512.626437 
L 204.275478 508.220302 
L 210.040696 507.755877 
L 215.805913 505.988013 
L 221.57113 503.395795 
L 227.336348 500.746114 
L 233.101565 495.119663 
L 238.866783 500.607432 
L 244.632 503.396719 
L 250.397217 501.713887 
L 256.162435 506.517946 
L 261.927652 509.146688 
L 267.69287 513.418154 
L 273.458087 510.269331 
L 279.223304 521.855968 
L 284.988522 522.272841 
L 290.753739 513.331187 
L 296.518957 526.105894 
L 302.284174 537.322076 
L 308.049391 534.116348 
L 313.814609 522.800612 
L 319.579826 528.95157 
L 325.345043 530.729256 
L 331.110261 529.987291 
L 336.875478 522.091543 
L 342.640696 528.82763 
L 348.405913 524.003538 
L 354.17113 520.734159 
L 359.936348 529.982342 
L 365.701565 527.157786 
L 371.466783 526.305823 
L 377.232 526.220585 
L 382.997217 519.890477 
L 388.762435 525.150302 
" clip-path="url(#p0c7f00689a)" style="fill: none; stroke: #183a56; stroke-width: 1.9; stroke-linecap: square"/>
   </g>
  </g>
  <g id="axes_6">
   <g id="patch_17">
    <path d="M 471.781565 609.5376 
L 748.512 609.5376 
L 748.512 449.3376 
L 471.781565 449.3376 
z
" style="fill: #ffffff"/>
   </g>
   <g id="matplotlib.axis_11">
    <g id="xtick_26">
     <g id="line2d_68">
      <g>
       <use xlink:href="#m98487a3f67" x="471.781565" y="609.5376" style="fill: #434d55; stroke: #434d55; stroke-width: 0.8"/>
      </g>
     </g>
     <g id="text_33">
      <text style="font-size: 9px; font-family: 'Palatino Linotype', 'P052', 'DejaVu Serif', serif; text-anchor: middle; fill: #434d55" x="471.781565" y="622.571037" transform="rotate(-0 471.781565 622.571037)">0</text>
     </g>
    </g>
    <g id="xtick_27">
     <g id="line2d_69">
      <g>
       <use xlink:href="#m98487a3f67" x="540.964174" y="609.5376" style="fill: #434d55; stroke: #434d55; stroke-width: 0.8"/>
      </g>
     </g>
     <g id="text_34">
      <text style="font-size: 9px; font-family: 'Palatino Linotype', 'P052', 'DejaVu Serif', serif; text-anchor: middle; fill: #434d55" x="540.964174" y="622.571037" transform="rotate(-0 540.964174 622.571037)">12</text>
     </g>
    </g>
    <g id="xtick_28">
     <g id="line2d_70">
      <g>
       <use xlink:href="#m98487a3f67" x="610.146783" y="609.5376" style="fill: #434d55; stroke: #434d55; stroke-width: 0.8"/>
      </g>
     </g>
     <g id="text_35">
      <text style="font-size: 9px; font-family: 'Palatino Linotype', 'P052', 'DejaVu Serif', serif; text-anchor: middle; fill: #434d55" x="610.146783" y="622.571037" transform="rotate(-0 610.146783 622.571037)">24</text>
     </g>
    </g>
    <g id="xtick_29">
     <g id="line2d_71">
      <g>
       <use xlink:href="#m98487a3f67" x="679.329391" y="609.5376" style="fill: #434d55; stroke: #434d55; stroke-width: 0.8"/>
      </g>
     </g>
     <g id="text_36">
      <text style="font-size: 9px; font-family: 'Palatino Linotype', 'P052', 'DejaVu Serif', serif; text-anchor: middle; fill: #434d55" x="679.329391" y="622.571037" transform="rotate(-0 679.329391 622.571037)">36</text>
     </g>
    </g>
    <g id="xtick_30">
     <g id="line2d_72">
      <g>
       <use xlink:href="#m98487a3f67" x="748.512" y="609.5376" style="fill: #434d55; stroke: #434d55; stroke-width: 0.8"/>
      </g>
     </g>
     <g id="text_37">
      <text style="font-size: 9px; font-family: 'Palatino Linotype', 'P052', 'DejaVu Serif', serif; text-anchor: middle; fill: #434d55" x="748.512" y="622.571037" transform="rotate(-0 748.512 622.571037)">48</text>
     </g>
    </g>
    <g id="text_38">
     <text style="font-size: 10px; font-family: 'Palatino Linotype', 'P052', 'DejaVu Serif', serif; text-anchor: middle; fill: #202a31" x="610.146783" y="636.35885" transform="rotate(-0 610.146783 636.35885)">Horizon (months)</text>
    </g>
   </g>
   <g id="matplotlib.axis_12">
    <g id="ytick_17">
     <g id="line2d_73">
      <path d="M 471.781565 600.677777 
L 748.512 600.677777 
" clip-path="url(#p0a28d62309)" style="fill: none; stroke: #dde3e6; stroke-width: 0.6; stroke-linecap: square"/>
     </g>
     <g id="line2d_74">
      <g>
       <use xlink:href="#m7ba3392fea" x="471.781565" y="600.677777" style="fill: #434d55; stroke: #434d55; stroke-width: 0.8"/>
      </g>
     </g>
     <g id="text_39">
      <text style="font-size: 9px; font-family: 'Palatino Linotype', 'P052', 'DejaVu Serif', serif; text-anchor: end; fill: #434d55" x="465.281565" y="603.944495" transform="rotate(-0 465.281565 603.944495)">−0.2</text>
     </g>
    </g>
    <g id="ytick_18">
     <g id="line2d_75">
      <path d="M 471.781565 558.333216 
L 748.512 558.333216 
" clip-path="url(#p0a28d62309)" style="fill: none; stroke: #dde3e6; stroke-width: 0.6; stroke-linecap: square"/>
     </g>
     <g id="line2d_76">
      <g>
       <use xlink:href="#m7ba3392fea" x="471.781565" y="558.333216" style="fill: #434d55; stroke: #434d55; stroke-width: 0.8"/>
      </g>
     </g>
     <g id="text_40">
      <text style="font-size: 9px; font-family: 'Palatino Linotype', 'P052', 'DejaVu Serif', serif; text-anchor: end; fill: #434d55" x="465.281565" y="561.599935" transform="rotate(-0 465.281565 561.599935)">−0.1</text>
     </g>
    </g>
    <g id="ytick_19">
     <g id="line2d_77">
      <path d="M 471.781565 515.988655 
L 748.512 515.988655 
" clip-path="url(#p0a28d62309)" style="fill: none; stroke: #dde3e6; stroke-width: 0.6; stroke-linecap: square"/>
     </g>
     <g id="line2d_78">
      <g>
       <use xlink:href="#m7ba3392fea" x="471.781565" y="515.988655" style="fill: #434d55; stroke: #434d55; stroke-width: 0.8"/>
      </g>
     </g>
     <g id="text_41">
      <text style="font-size: 9px; font-family: 'Palatino Linotype', 'P052', 'DejaVu Serif', serif; text-anchor: end; fill: #434d55" x="465.281565" y="519.255374" transform="rotate(-0 465.281565 519.255374)">0</text>
     </g>
    </g>
    <g id="ytick_20">
     <g id="line2d_79">
      <path d="M 471.781565 473.644094 
L 748.512 473.644094 
" clip-path="url(#p0a28d62309)" style="fill: none; stroke: #dde3e6; stroke-width: 0.6; stroke-linecap: square"/>
     </g>
     <g id="line2d_80">
      <g>
       <use xlink:href="#m7ba3392fea" x="471.781565" y="473.644094" style="fill: #434d55; stroke: #434d55; stroke-width: 0.8"/>
      </g>
     </g>
     <g id="text_42">
      <text style="font-size: 9px; font-family: 'Palatino Linotype', 'P052', 'DejaVu Serif', serif; text-anchor: end; fill: #434d55" x="465.281565" y="476.910813" transform="rotate(-0 465.281565 476.910813)">0.1</text>
     </g>
    </g>
    <g id="text_43">
     <text style="font-size: 10px; font-family: 'Palatino Linotype', 'P052', 'DejaVu Serif', serif; fill: #202a31" transform="translate(426.227815 561.442287) rotate(-90)">Nuclear threat</text>
     <text style="font-size: 10px; font-family: 'Palatino Linotype', 'P052', 'DejaVu Serif', serif; fill: #202a31" transform="translate(437.74844 580.109475) rotate(-90)">Oil-production growth</text>
    </g>
   </g>
   <g id="FillBetweenPolyCollection_11">
    <defs>
     <path id="m5071fc9973" d="M 471.781565 -137.820916 
L 471.781565 -115.737394 
L 477.546783 -122.980593 
L 483.312 -120.422939 
L 489.077217 -112.597248 
L 494.842435 -117.596525 
L 500.607652 -123.774945 
L 506.37287 -116.805201 
L 512.138087 -119.541511 
L 517.903304 -120.767557 
L 523.668522 -116.738905 
L 529.433739 -115.178127 
L 535.198957 -105.789712 
L 540.964174 -114.782114 
L 546.729391 -120.631417 
L 552.494609 -119.187413 
L 558.259826 -118.386852 
L 564.025043 -123.7304 
L 569.790261 -115.270957 
L 575.555478 -115.066166 
L 581.320696 -119.211484 
L 587.085913 -121.233189 
L 592.85113 -124.509593 
L 598.616348 -113.445782 
L 604.381565 -112.926657 
L 610.146783 -123.727383 
L 615.912 -113.089791 
L 621.677217 -104.77474 
L 627.442435 -113.388281 
L 633.207652 -109.247555 
L 638.97287 -108.135739 
L 644.738087 -99.747939 
L 650.503304 -118.209449 
L 656.268522 -114.727092 
L 662.033739 -44.112443 
L 667.798957 -96.043368 
L 673.564174 -112.9081 
L 679.329391 -118.689371 
L 685.094609 -74.207737 
L 690.859826 -110.221669 
L 696.625043 -118.27218 
L 702.390261 -119.323078 
L 708.155478 -112.135337 
L 713.920696 -104.812499 
L 719.685913 -126.224874 
L 725.45113 -88.458 
L 731.216348 -123.954378 
L 736.981565 -110.149783 
L 742.746783 -119.208934 
L 748.512 -107.472009 
L 748.512 -134.551987 
L 748.512 -134.551987 
L 742.746783 -150.850948 
L 736.981565 -143.896445 
L 731.216348 -149.875429 
L 725.45113 -141.560331 
L 719.685913 -167.756543 
L 713.920696 -145.01135 
L 708.155478 -142.389157 
L 702.390261 -143.160346 
L 696.625043 -146.491547 
L 690.859826 -151.597666 
L 685.094609 -135.842934 
L 679.329391 -175.24893 
L 673.564174 -143.793272 
L 667.798957 -142.310514 
L 662.033739 -152.315634 
L 656.268522 -189.748807 
L 650.503304 -147.248155 
L 644.738087 -146.889382 
L 638.97287 -134.042864 
L 633.207652 -152.422118 
L 627.442435 -155.798287 
L 621.677217 -143.109137 
L 615.912 -148.190145 
L 610.146783 -149.201543 
L 604.381565 -134.763943 
L 598.616348 -135.316909 
L 592.85113 -154.946296 
L 587.085913 -144.593427 
L 581.320696 -143.494145 
L 575.555478 -147.295988 
L 569.790261 -142.353585 
L 564.025043 -149.894818 
L 558.259826 -142.148694 
L 552.494609 -142.63282 
L 546.729391 -150.159731 
L 540.964174 -149.286586 
L 535.198957 -141.842527 
L 529.433739 -142.986343 
L 523.668522 -137.985997 
L 517.903304 -146.774067 
L 512.138087 -143.099706 
L 506.37287 -138.887231 
L 500.607652 -143.765661 
L 494.842435 -138.742071 
L 489.077217 -141.662649 
L 483.312 -152.704393 
L 477.546783 -151.902963 
L 471.781565 -137.820916 
z
"/>
    </defs>
    <g clip-path="url(#p0a28d62309)">
     <use xlink:href="#m5071fc9973" x="0" y="646.368225" style="fill: #183a56; fill-opacity: 0.12"/>
    </g>
   </g>
   <g id="FillBetweenPolyCollection_12">
    <defs>
     <path id="m1ec0b6d871" d="M 471.781565 -136.045693 
L 471.781565 -117.512618 
L 477.546783 -125.305569 
L 483.312 -123.017941 
L 489.077217 -114.933722 
L 494.842435 -119.296347 
L 500.607652 -125.381934 
L 506.37287 -118.580304 
L 512.138087 -121.435278 
L 517.903304 -122.858136 
L 523.668522 -118.44689 
L 529.433739 -117.413539 
L 535.198957 -108.687882 
L 540.964174 -117.555817 
L 546.729391 -123.005103 
L 552.494609 -121.072113 
L 558.259826 -120.29699 
L 564.025043 -125.833673 
L 569.790261 -117.448042 
L 575.555478 -117.657018 
L 581.320696 -121.163489 
L 587.085913 -123.111043 
L 592.85113 -126.956302 
L 598.616348 -115.203931 
L 604.381565 -114.682086 
L 610.146783 -125.775168 
L 615.912 -115.911395 
L 621.677217 -107.856318 
L 627.442435 -116.797485 
L 633.207652 -112.718219 
L 638.97287 -110.218329 
L 644.738087 -103.537487 
L 650.503304 -120.543777 
L 656.268522 -120.757846 
L 662.033739 -52.810548 
L 667.798957 -99.762635 
L 673.564174 -115.390859 
L 679.329391 -123.236012 
L 685.094609 -79.162391 
L 690.859826 -113.547752 
L 696.625043 -120.540643 
L 702.390261 -121.239279 
L 708.155478 -114.567344 
L 713.920696 -108.043954 
L 719.685913 -129.563471 
L 725.45113 -92.726725 
L 731.216348 -126.038088 
L 736.981565 -112.862569 
L 742.746783 -121.752534 
L 748.512 -109.648881 
L 748.512 -132.375115 
L 748.512 -132.375115 
L 742.746783 -148.307349 
L 736.981565 -141.18366 
L 731.216348 -147.79172 
L 725.45113 -137.291606 
L 719.685913 -164.417946 
L 713.920696 -141.779894 
L 708.155478 -139.95715 
L 702.390261 -141.244145 
L 696.625043 -144.223083 
L 690.859826 -148.271583 
L 685.094609 -130.88828 
L 679.329391 -170.702289 
L 673.564174 -141.310513 
L 667.798957 -138.591247 
L 662.033739 -143.617528 
L 656.268522 -183.718053 
L 650.503304 -144.913827 
L 644.738087 -143.099833 
L 638.97287 -131.960274 
L 633.207652 -148.951455 
L 627.442435 -152.389084 
L 621.677217 -140.027558 
L 615.912 -145.368541 
L 610.146783 -147.153757 
L 604.381565 -133.008514 
L 598.616348 -133.558759 
L 592.85113 -152.499588 
L 587.085913 -142.715573 
L 581.320696 -141.54214 
L 575.555478 -144.705136 
L 569.790261 -140.1765 
L 564.025043 -147.791545 
L 558.259826 -140.238556 
L 552.494609 -140.748119 
L 546.729391 -147.786045 
L 540.964174 -146.512883 
L 535.198957 -138.944358 
L 529.433739 -140.75093 
L 523.668522 -136.278012 
L 517.903304 -144.683487 
L 512.138087 -141.205939 
L 506.37287 -137.112128 
L 500.607652 -142.158672 
L 494.842435 -137.042248 
L 489.077217 -139.326176 
L 483.312 -150.109391 
L 477.546783 -149.577987 
L 471.781565 -136.045693 
z
"/>
    </defs>
    <g clip-path="url(#p0a28d62309)">
     <use xlink:href="#m1ec0b6d871" x="0" y="646.368225" style="fill: #183a56; fill-opacity: 0.2"/>
    </g>
   </g>
   <g id="line2d_81">
    <path d="M 471.781565 515.988655 
L 748.512 515.988655 
" clip-path="url(#p0a28d62309)" style="fill: none; stroke: #7a858c; stroke-width: 0.8; stroke-linecap: square"/>
   </g>
   <g id="patch_18">
    <path d="M 471.781565 609.5376 
L 471.781565 449.3376 
" style="fill: none; stroke: #92999d; stroke-width: 0.65; stroke-linejoin: miter; stroke-linecap: square"/>
   </g>
   <g id="patch_19">
    <path d="M 471.781565 609.5376 
L 748.512 609.5376 
" style="fill: none; stroke: #92999d; stroke-width: 0.65; stroke-linejoin: miter; stroke-linecap: square"/>
   </g>
   <g id="text_44">
    <text style="font-size: 9px; font-family: 'Palatino Linotype', 'P052', 'DejaVu Serif', serif; text-anchor: start; fill: #4d5962" x="478.699826" y="465.483037" transform="rotate(-0 478.699826 465.483037)">(f)</text>
   </g>
   <g id="line2d_82">
    <path d="M 471.781565 519.58907 
L 477.546783 508.926447 
L 483.312 509.804559 
L 489.077217 519.238276 
L 494.842435 518.198927 
L 500.607652 512.597922 
L 506.37287 518.522009 
L 512.138087 515.047617 
L 517.903304 512.597413 
L 523.668522 519.005774 
L 529.433739 517.28599 
L 535.198957 522.552105 
L 540.964174 514.333875 
L 546.729391 510.972651 
L 552.494609 515.458109 
L 558.259826 516.100452 
L 564.025043 509.555616 
L 569.790261 517.555954 
L 575.555478 515.187148 
L 581.320696 515.015411 
L 587.085913 513.454917 
L 592.85113 506.64028 
L 598.616348 521.98688 
L 604.381565 522.522925 
L 610.146783 509.903762 
L 615.912 515.728257 
L 621.677217 522.426287 
L 627.442435 511.774941 
L 633.207652 515.533388 
L 638.97287 525.278923 
L 644.738087 523.049565 
L 650.503304 513.639423 
L 656.268522 494.130275 
L 662.033739 548.154187 
L 667.798957 527.191284 
L 673.564174 518.017539 
L 679.329391 499.399074 
L 685.094609 541.342889 
L 690.859826 515.458557 
L 696.625043 513.986362 
L 702.390261 515.126513 
L 708.155478 519.105978 
L 713.920696 521.456301 
L 719.685913 499.377517 
L 725.45113 531.359059 
L 731.216348 509.453321 
L 736.981565 519.345111 
L 742.746783 511.338284 
L 748.512 525.356227 
" clip-path="url(#p0a28d62309)" style="fill: none; stroke: #183a56; stroke-width: 1.9; stroke-linecap: square"/>
   </g>
  </g>
  <g id="text_45">
   <text style="font-size: 11px; font-family: 'Palatino Linotype', 'P052', 'DejaVu Serif', serif; fill: #202a31" transform="translate(15.185313 455.489209) rotate(-90)">Response to a 10% index increase (log points × 100)</text>
  </g>
  <g id="legend_1">
   <g id="line2d_83">
    <path d="M 253.756547 14.183437 
L 263.206547 14.183437 
L 272.656547 14.183437 
" style="fill: none; stroke: #183a56; stroke-width: 1.9; stroke-linecap: square"/>
   </g>
   <g id="text_46">
    <text style="font-size: 9px; font-family: 'Palatino Linotype', 'P052', 'DejaVu Serif', serif; text-anchor: start; fill: #202a31" x="279.856547" y="17.333437" transform="rotate(-0 279.856547 17.333437)">Estimate</text>
   </g>
   <g id="patch_20">
    <path d="M 332.415141 17.333437 
L 351.315141 17.333437 
L 351.315141 11.033437 
L 332.415141 11.033437 
z
" style="fill: #183a56; opacity: 0.32"/>
   </g>
   <g id="text_47">
    <text style="font-size: 9px; font-family: 'Palatino Linotype', 'P052', 'DejaVu Serif', serif; text-anchor: start; fill: #202a31" x="358.515141" y="17.333437" transform="rotate(-0 358.515141 17.333437)">90% interval</text>
   </g>
   <g id="patch_21">
    <path d="M 426.185297 17.333437 
L 445.085297 17.333437 
L 445.085297 11.033437 
L 426.185297 11.033437 
z
" style="fill: #183a56; opacity: 0.12"/>
   </g>
   <g id="text_48">
    <text style="font-size: 9px; font-family: 'Palatino Linotype', 'P052', 'DejaVu Serif', serif; text-anchor: start; fill: #202a31" x="452.285297" y="17.333437" transform="rotate(-0 452.285297 17.333437)">95% interval</text>
   </g>
  </g>
 </g>
 <defs>
  <clipPath id="p7b35c48073">
   <rect x="112.032" y="42.4296" width="276.730435" height="160.2"/>
  </clipPath>
  <clipPath id="pa517438e03">
   <rect x="471.781565" y="42.4296" width="276.730435" height="160.2"/>
  </clipPath>
  <clipPath id="p943c203f41">
   <rect x="112.032" y="245.8836" width="276.730435" height="160.2"/>
  </clipPath>
  <clipPath id="pa22ee7906f">
   <rect x="471.781565" y="245.8836" width="276.730435" height="160.2"/>
  </clipPath>
  <clipPath id="p0c7f00689a">
   <rect x="112.032" y="449.3376" width="276.730435" height="160.2"/>
  </clipPath>
  <clipPath id="p0a28d62309">
   <rect x="471.781565" y="449.3376" width="276.730435" height="160.2"/>
  </clipPath>
 </defs>
</svg>
